<svg width="1707" height="1131" viewBox="0 0 1707 1131" fill="none" xmlns="http://www.w3.org/2000/svg">
<path d="M632.463 215.418C630.614 216.085 619.772 221.645 614.479 224.758L610.844 226.871L601.087 223.424C587.951 218.754 578.449 218.642 570.924 222.979C566.268 225.647 561.804 229.206 565.184 227.649C576.791 222.089 584.953 220.421 590.374 222.423C592.287 223.09 597.58 226.759 602.108 230.54C608.039 235.544 611.227 237.545 613.714 237.879C617.604 238.435 618.051 237.212 616.137 231.43C613.714 224.424 615.564 223.646 635.651 222.645L650 221.867L646.365 218.865C642.73 215.751 636.225 214.195 632.463 215.418Z" fill="white"/>
<g clip-path="url(#clip0_5_19)">
<path d="M31.8518 771.4C30.9927 771.8 25.9556 775.133 23.4962 777L21.8074 778.267L17.2741 776.2C11.1704 773.4 6.75556 773.333 3.25927 775.933C1.0963 777.533 -0.977774 779.667 0.592597 778.733C5.9852 775.4 9.77778 774.4 12.2963 775.6C13.1852 776 15.6444 778.2 17.7482 780.467C20.5037 783.467 21.9852 784.667 23.1407 784.867C24.9482 785.2 25.1556 784.467 24.2667 781C23.1407 776.8 24 776.333 33.3333 775.733L40 775.267L38.3111 773.467C36.6222 771.6 33.6 770.667 31.8518 771.4Z" fill="white"/>
</g>
<g clip-path="url(#clip1_5_19)">
<path d="M421.333 945.8C417.467 946.6 394.8 953.267 383.733 957L376.133 959.533L355.733 955.4C328.267 949.8 308.4 949.667 292.667 954.867C282.933 958.067 273.6 962.333 280.667 960.467C304.933 953.8 322 951.8 333.333 954.2C337.333 955 348.4 959.4 357.867 963.933C370.267 969.933 376.933 972.333 382.133 972.733C390.267 973.4 391.2 971.933 387.2 965C382.133 956.6 386 955.667 428 954.467L458 953.533L450.4 949.933C442.8 946.2 429.2 944.333 421.333 945.8Z" fill="white"/>
</g>
<defs>
<clipPath id="clip0_5_19">
<rect width="40" height="14" fill="white" transform="translate(0 771)"/>
</clipPath>
<clipPath id="clip1_5_19">
<rect width="180" height="28" fill="white" transform="translate(278 945)"/>
</clipPath>
</defs>
</svg>
