<svg width="515" height="401" viewBox="0 0 515 401" fill="none" xmlns="http://www.w3.org/2000/svg">
<g clip-path="url(#clip0_2_488)">
<mask id="mask0_2_488" style="mask-type:luminance" maskUnits="userSpaceOnUse" x="0" y="0" width="515" height="401">
<path d="M514.08 0H0V400.99H514.08V0Z" fill="white"/>
</mask>
<g mask="url(#mask0_2_488)">
<path d="M210.62 0.799984C173.29 3.43999 135.32 16.98 110.4 44.89C91.19 66.42 81.1 94.61 63.61 117.61C45.61 141.2 19.8 159.36 8.15 186.61C1.19 202.85 -0.00999937 220.93 6.31015e-07 238.61C6.31015e-07 264.2 2.53 290.43 13.52 313.55C18.65 324.37 25.83 334.55 35.93 341.02C45.37 347.02 56.67 349.36 67.77 350.9C116.96 357.71 167.69 351.32 216.1 362.37C241.32 368.12 265.22 378.46 289.97 385.96C330.37 398.194 372.697 402.786 414.78 399.5C431.23 398.21 447.9 395.62 462.67 388.27C498.11 370.65 515.87 327.74 512.82 288.27C509.77 248.8 489.45 212.61 465.13 181.41C449.56 161.41 432.01 142.61 420.79 119.91C412.85 103.85 408.29 86.23 399.7 70.52C366.07 9.02997 273.59 -3.65001 210.62 0.799984Z" fill="#214148"/>
<path opacity="0.58" d="M463.59 388.72C448.82 396.06 432.15 398.65 415.7 399.95C373.613 403.236 331.283 398.644 290.88 386.41C266.19 378.91 242.24 368.61 217.02 362.81C168.6 351.81 117.87 358.16 68.68 351.35C57.59 349.81 46.29 347.49 36.85 341.46C26.75 335.03 19.57 324.82 14.43 314C3.42997 290.88 0.919973 264.66 0.909973 239.06C0.909973 221.38 2.12997 203.3 9.06997 187.06C20.71 159.79 46.55 141.62 64.52 118.06C82.01 95.11 92.09 66.9 111.32 45.38C136.24 17.44 174.19 3.89998 211.53 1.25998C274.53 -3.19002 366.99 9.48997 400.61 70.98C409.21 86.69 413.77 104.31 421.7 120.36C432.94 143.07 450.48 161.89 466.04 181.87C479.04 198.52 490.87 216.6 499.55 235.82C503.753 245.045 507.146 254.617 509.69 264.43C511.72 272.396 513.059 280.523 513.69 288.72C516.78 328.19 499.03 371.1 463.59 388.72Z" fill="url(#paint0_linear_2_488)"/>
<path d="M254.91 213.83C247.577 215.83 240.243 217.663 232.91 219.33C230.31 219.92 227.63 220.48 225.02 219.97C223.135 219.503 221.334 218.748 219.68 217.73C201.911 207.955 185.516 195.87 170.92 181.79C170.083 177.191 168.408 172.785 165.98 168.79C165.36 169.758 164.997 170.868 164.923 172.016C164.85 173.163 165.069 174.31 165.56 175.35C163.38 174.97 161.78 173.17 160.22 171.6C156.981 168.34 153.18 165.691 149 163.78C148.655 163.925 148.376 164.191 148.216 164.529C148.055 164.866 148.025 165.251 148.13 165.61C148.376 166.316 148.792 166.951 149.34 167.46L153.06 171.46L142.19 167.28C141.142 166.805 140.018 166.52 138.87 166.44C138.296 166.41 137.724 166.533 137.212 166.797C136.701 167.06 136.269 167.455 135.96 167.94L148.51 176.55L136.38 173.76C135.38 174.83 136.79 176.42 138.04 177.17L145.34 181.54C143.81 181.8 142.34 180.99 140.79 180.78C139.24 180.57 137.27 181.58 137.58 183.1C137.89 184.62 139.78 184.78 141.23 185.04C146.55 186.04 150.6 191.59 155.98 191.18C157.106 190.962 158.254 190.871 159.4 190.91C160.673 191.235 161.834 191.898 162.76 192.83C175.85 203.89 188.91 215 202.05 226.01C218.66 239.95 230.44 238.09 238.64 237.94C246.84 237.79 254.98 236.35 263.06 234.94C263.862 234.856 264.634 234.593 265.32 234.17C267.32 232.71 266.32 229.61 265.15 227.46C262.43 222.52 258.26 218.36 254.91 213.83Z" fill="#FAE9C7"/>
<path d="M353.05 303.16C357.455 304.445 362.115 304.586 366.59 303.57C371.035 302.55 375.384 301.151 379.59 299.39L400.19 291.47C404.28 289.9 408.93 289.09 413.19 288.12C415.12 287.69 417.19 287.27 419 288.12C420.5 288.83 421.48 290.28 422.76 291.32C424.042 292.354 425.608 292.975 427.25 293.1C427.888 293.195 428.54 293.071 429.1 292.75C430.48 291.81 429.89 289.68 429.15 288.19L422.83 275.42C422.09 273.92 421.12 272.24 419.47 271.97C418.305 271.93 417.156 272.252 416.18 272.89C408.5 276.74 399.94 278.44 391.5 280.06C380.61 282.15 369.61 284.19 358.5 283.78C357.782 283.704 357.055 283.765 356.36 283.96C355.905 284.139 355.482 284.393 355.11 284.71C353.453 286.038 352.208 287.811 351.52 289.82C350.57 292.59 350.76 295.6 350.95 298.53C350.941 299.83 351.204 301.117 351.72 302.31C352.38 303.44 351.77 303.33 353.05 303.16Z" fill="#FAE9C7"/>
<path d="M327.24 326.61C330.345 329.987 334.263 332.514 338.62 333.95C342.961 335.38 347.418 336.434 351.94 337.1L373.65 340.96C377.97 341.72 382.37 343.43 386.53 344.81C388.41 345.43 390.42 346.16 391.53 347.81C392.45 349.18 392.53 350.93 393.09 352.48C393.652 354.032 394.674 355.375 396.02 356.33C396.516 356.739 397.137 356.968 397.78 356.98C399.45 356.89 400.04 354.76 400.18 353.1L401.37 338.9C401.51 337.24 401.54 335.3 400.27 334.22C399.295 333.581 398.145 333.259 396.98 333.3C388.41 332.63 380.2 329.67 372.14 326.69C361.74 322.86 351.27 318.93 342 312.86C341.423 312.424 340.768 312.101 340.07 311.91C339.587 311.825 339.093 311.825 338.61 311.91C336.507 312.189 334.527 313.059 332.9 314.42C330.66 316.31 329.26 318.98 327.9 321.59C327.23 322.701 326.792 323.936 326.61 325.22C326.52 326.53 326.05 326.13 327.24 326.61Z" fill="#FAE9C7"/>
<path d="M218.89 215.17C218.631 214.981 218.335 214.85 218.021 214.784C217.707 214.719 217.383 214.721 217.07 214.79C216.798 214.931 216.559 215.129 216.37 215.37C213.141 218.989 210.717 223.254 209.26 227.88C208.8 229.35 208.46 231.02 209.26 232.37C209.601 232.911 210.03 233.391 210.53 233.79C213.102 236.002 216.09 237.679 219.318 238.723C222.546 239.767 225.95 240.157 229.33 239.87C230.523 239.796 231.697 239.536 232.81 239.1C234.008 238.536 235.093 237.756 236.01 236.8C238.209 234.574 239.83 231.844 240.733 228.848C241.636 225.852 241.793 222.68 241.19 219.61C240.87 218.02 240.19 214.94 238.33 214.99C237.49 214.99 236.18 215.99 235.33 216.25C232.65 217.158 229.817 217.527 226.994 217.337C224.171 217.146 221.414 216.4 218.88 215.14L218.89 215.17Z" fill="#212121"/>
<path opacity="0.58" d="M218.89 215.17C218.631 214.981 218.335 214.85 218.021 214.784C217.707 214.719 217.383 214.721 217.07 214.79C216.798 214.931 216.559 215.129 216.37 215.37C213.141 218.989 210.717 223.254 209.26 227.88C208.8 229.35 208.46 231.02 209.26 232.37C209.601 232.911 210.03 233.391 210.53 233.79C213.102 236.002 216.09 237.679 219.318 238.723C222.546 239.767 225.95 240.157 229.33 239.87C230.523 239.796 231.697 239.536 232.81 239.1C234.008 238.536 235.093 237.756 236.01 236.8C238.209 234.574 239.83 231.844 240.733 228.848C241.636 225.852 241.793 222.68 241.19 219.61C240.87 218.02 240.19 214.94 238.33 214.99C237.49 214.99 236.18 215.99 235.33 216.25C232.65 217.158 229.817 217.527 226.994 217.337C224.171 217.146 221.414 216.4 218.88 215.14L218.89 215.17Z" fill="url(#paint1_linear_2_488)"/>
<path d="M211.11 189.98C210.72 193.76 210.57 197.46 210.47 200.66C210.4 203.07 210.47 205.61 211.69 207.66C212.985 209.505 214.778 210.944 216.86 211.81C221.74 214.24 227.19 215.81 232.63 215.31C235.791 214.962 238.839 213.938 241.569 212.307C244.299 210.677 246.645 208.478 248.45 205.86C252.09 200.61 255.74 194.86 256.56 188.43C257.434 182.069 256.096 175.602 252.77 170.11C251.091 167.396 248.857 165.067 246.215 163.277C243.574 161.486 240.583 160.274 237.44 159.72C229.33 158.46 221.03 164.61 216.65 171.1C213.3 176.08 211.81 183.17 211.11 189.98Z" fill="#FAE9C7"/>
<path d="M233.3 214.93C233.516 218.215 234.069 221.468 234.95 224.64C235.158 225.509 235.601 226.305 236.23 226.94C237.7 228.23 239.94 227.63 241.9 227.56C242.724 227.612 243.552 227.531 244.35 227.32C245.044 227.006 245.664 226.55 246.17 225.98C247.663 224.701 248.866 223.12 249.7 221.34C250.076 220.249 250.298 219.112 250.36 217.96C250.839 212.542 250.661 207.085 249.83 201.71C249.69 200.8 249.42 199.71 248.58 199.39C248.125 199.222 247.629 199.197 247.16 199.32C245.269 199.792 243.461 200.551 241.8 201.57C240.2 202.423 238.57 203.207 236.91 203.92C235.77 204.42 233.81 204.78 232.97 205.77C232.13 206.76 232.63 208.32 232.74 209.44C232.93 211.27 233.11 213.1 233.3 214.93Z" fill="#FAE9C7"/>
<path d="M220.02 155.36C218.244 156.205 216.635 157.364 215.27 158.78C213.751 160.008 212.484 161.52 211.54 163.23C211.081 164.096 210.881 165.076 210.962 166.052C211.044 167.029 211.404 167.962 212 168.74C212.94 169.74 214.56 170.32 215.72 171.1C217.256 172.147 219.132 172.573 220.97 172.29C221.296 172.192 221.644 172.192 221.97 172.29C222.226 172.44 222.442 172.649 222.6 172.9C223.269 173.712 224.198 174.266 225.23 174.47C225.658 174.485 226.068 174.648 226.39 174.93C226.571 175.231 226.658 175.579 226.64 175.93C226.92 179.18 229.38 181.8 230.39 184.93C230.866 186.657 231.118 188.439 231.14 190.23L231.33 193.7C231.33 193 234.27 190.2 234.93 189.78C237.52 191.32 237.4 195.78 234.73 197.22C234.966 199.438 235.901 201.524 237.401 203.176C238.9 204.828 240.885 205.96 243.07 206.41C244.614 206.628 246.177 206.672 247.73 206.54L251.73 206.34C252.134 206.385 252.54 206.268 252.858 206.015C253.177 205.763 253.382 205.394 253.43 204.99C254.8 201.1 257.43 197.99 258.62 193.99C259.81 189.99 259.76 186.12 259.76 181.99C259.2 174.56 256.71 167.07 251.6 161.66C250.259 160.193 248.689 158.953 246.95 157.99C244.12 156.47 240.89 155.92 237.72 155.4C234.743 154.914 231.736 154.63 228.72 154.55C225.9 154.46 222.67 154.3 220.02 155.36Z" fill="#212121"/>
<path d="M313.84 260C312.95 262.9 311.95 265.87 310.77 268.79L310.71 268.93C310.45 269.597 310.18 270.237 309.9 270.85C309.63 271.44 309.36 272.04 309.08 272.63C309.051 272.702 309.017 272.772 308.98 272.84C308.84 273.14 308.68 273.44 308.53 273.73L308.05 274.68C307.72 275.3 307.38 275.92 307.05 276.53C306.81 276.96 306.55 277.37 306.28 277.79C306.28 277.79 306.28 277.79 306.28 277.85C304.172 281.321 301.463 284.389 298.28 286.91C297.76 287.31 297.22 287.7 296.66 288.07C295.263 289.123 293.601 289.767 291.86 289.93C290.551 289.909 289.259 289.627 288.06 289.1C284.662 287.794 281.346 286.285 278.13 284.58C276.81 283.28 275.47 281.99 274.13 280.72C272.39 279.06 270.63 277.42 268.77 275.9C262.24 270.61 254.55 267.02 246.94 263.47L238.41 259.61C236.67 258.8 234.88 257.61 232.99 257.2C232.919 257.15 232.842 257.11 232.76 257.08C232.083 256.92 231.377 256.92 230.7 257.08C225.7 257.95 221.42 259.37 216.33 259.73C215.583 259.84 214.821 259.764 214.11 259.51C213.37 259.19 212.05 255.26 211.59 254.6C208.549 250.179 206.75 245.023 206.38 239.67C206.294 239.059 206.362 238.437 206.58 237.86C207.052 237.123 207.755 236.563 208.58 236.27C217.36 231.95 226.09 227.14 232.95 220.16L233.72 219.39C234.15 218.96 234.59 218.52 235.07 218.07L235.94 217.24C236.73 216.48 237.56 215.71 238.37 214.94L239.37 214.04L239.91 213.54C241.712 211.848 243.78 210.463 246.03 209.44C246.66 209.15 247.31 208.89 247.97 208.65C248.3 208.54 248.62 208.43 248.97 208.34C249.628 208.139 250.295 207.972 250.97 207.84C252.333 207.568 253.72 207.431 255.11 207.43H255.85H256.41H256.84C257.007 207.42 257.173 207.42 257.34 207.43C257.56 207.43 257.77 207.48 257.99 207.52H258.14L258.82 207.64C259.32 207.73 259.82 207.83 260.3 207.96L260.73 208.08L261.03 208.17L261.32 208.26C261.6 208.34 261.89 208.44 262.18 208.54C266.56 210.1 270.35 212.95 274.07 215.76L296.84 232.96L310.31 243.15C311.289 243.819 312.17 244.62 312.93 245.53C313.854 246.898 314.433 248.47 314.62 250.11C315.126 253.423 314.859 256.808 313.84 260Z" fill="#212121"/>
<path d="M296.08 289.04L295.69 289.12C296.04 288.749 296.453 288.445 296.91 288.22C297.136 288.115 297.381 288.057 297.63 288.049C297.879 288.04 298.127 288.081 298.36 288.17C298.86 288.36 297.63 288.71 296.08 289.04Z" fill="#212121"/>
<path d="M313.84 260C312.95 262.9 311.95 265.87 310.77 268.79C310.21 270.17 309.61 271.53 308.96 272.88C308.82 273.18 308.66 273.48 308.51 273.77L308.03 274.72C307.7 275.34 307.36 275.96 307.03 276.57C306.77 277.023 306.5 277.463 306.22 277.89C304.111 281.366 301.403 284.44 298.22 286.97C297.7 287.37 297.16 287.76 296.6 288.13C295.855 288.641 295.061 289.076 294.23 289.43C294.71 289.34 295.23 289.24 295.7 289.12C295.202 289.653 294.747 290.225 294.34 290.83C292.55 293.39 290.85 296.64 288.83 295.56L288.53 295.4C288.53 295.4 288.53 295.35 288.61 295.33C283.89 290.357 279.047 285.503 274.08 280.77C272.34 279.11 270.58 277.47 268.72 275.95C262.19 270.66 254.5 267.07 246.89 263.52L238.41 259.61C236.67 258.8 234.88 257.61 232.99 257.2C232.919 257.15 232.842 257.11 232.76 257.08C232.083 256.92 231.377 256.92 230.7 257.08C225.7 257.95 221.42 259.37 216.33 259.73C215.583 259.84 214.821 259.764 214.11 259.51C213.37 259.19 212.05 255.26 211.59 254.6C208.549 250.179 206.75 245.023 206.38 239.67C206.294 239.059 206.362 238.437 206.58 237.86C207.052 237.123 207.755 236.563 208.58 236.27C217.36 231.95 226.09 227.14 232.95 220.16L233.72 219.39C234.15 218.96 234.59 218.52 235.07 218.07L235.94 217.24C236.73 216.48 237.56 215.71 238.37 214.94L239.37 214.04L239.91 213.54L240.29 213.18C242.708 210.869 245.642 209.168 248.85 208.22C252.057 207.273 255.444 207.104 258.73 207.73C259.26 207.83 259.73 207.95 260.31 208.09L260.74 208.21L261.33 208.39C261.61 208.47 261.9 208.57 262.19 208.67C266.57 210.23 270.36 213.08 274.08 215.89L296.85 233.09L310.32 243.28C311.299 243.949 312.18 244.75 312.94 245.66C313.864 247.028 314.443 248.6 314.63 250.24C315.113 253.511 314.843 256.849 313.84 260Z" fill="#212121"/>
<path d="M288.51 295.41C288.51 295.41 288.51 295.36 288.59 295.34L288.81 295.57C289.07 295.72 288.43 295.92 288.44 295.57C288.449 295.512 288.474 295.457 288.51 295.41Z" fill="#212121"/>
<path d="M340.35 265.61C342.6 268.5 344.64 271.68 347.7 273.7C351.066 276.031 354.569 278.158 358.19 280.07C359.69 280.82 355.11 300.24 353.87 303.4C353.677 304.091 353.279 304.708 352.73 305.17C352.038 305.538 351.241 305.661 350.47 305.52C334.153 304.304 318.521 298.459 305.41 288.67C303.41 287.14 301.22 285.17 301.18 282.61C301.273 281.198 301.698 279.827 302.42 278.61L308.1 267.19C310.32 262.71 312.54 258.08 313.39 253.11C314.3 247.82 315.15 246.92 320.39 249.45C328.195 253.234 335.025 258.763 340.35 265.61Z" fill="#212121"/>
<path opacity="0.58" d="M340.35 265.61C342.6 268.5 344.64 271.68 347.7 273.7C351.066 276.031 354.569 278.158 358.19 280.07C359.69 280.82 355.11 300.24 353.87 303.4C353.677 304.091 353.279 304.708 352.73 305.17C352.038 305.538 351.241 305.661 350.47 305.52C334.153 304.304 318.521 298.459 305.41 288.67C303.41 287.14 301.22 285.17 301.18 282.61C301.273 281.198 301.698 279.827 302.42 278.61L308.1 267.19C310.32 262.71 312.54 258.08 313.39 253.11C314.3 247.82 315.15 246.92 320.39 249.45C328.195 253.234 335.025 258.763 340.35 265.61Z" fill="url(#paint2_linear_2_488)"/>
<path d="M319.95 324.55C321.42 325.99 323.03 327.47 325.04 327.89C326.996 328.129 328.98 327.807 330.76 326.96C335.173 325.299 339.421 323.23 343.45 320.78C344.826 320.123 345.94 319.02 346.61 317.65C346.96 316.351 346.887 314.974 346.4 313.72C344.83 308.36 341.88 303.46 340.57 298.03C339.5 293.56 339.57 288.86 338.47 284.4C337.198 279.894 335.169 275.636 332.47 271.81C327.252 263.954 321.014 256.825 313.92 250.61C311.145 262.02 305.602 272.571 297.78 281.33C293.37 286.12 290.2 288.54 294.43 294.33C298.13 299.39 301.8 304.45 305.82 309.27C310.267 314.577 314.977 319.67 319.95 324.55Z" fill="#212121"/>
<path opacity="0.58" d="M319.95 324.55C321.42 325.99 323.03 327.47 325.04 327.89C326.996 328.129 328.98 327.807 330.76 326.96C335.173 325.299 339.421 323.23 343.45 320.78C344.826 320.123 345.94 319.02 346.61 317.65C346.96 316.351 346.887 314.974 346.4 313.72C344.83 308.36 341.88 303.46 340.57 298.03C339.5 293.56 339.57 288.86 338.47 284.4C337.198 279.894 335.169 275.636 332.47 271.81C327.252 263.954 321.014 256.825 313.92 250.61C311.145 262.02 305.602 272.571 297.78 281.33C293.37 286.12 290.2 288.54 294.43 294.33C298.13 299.39 301.8 304.45 305.82 309.27C310.267 314.577 314.977 319.67 319.95 324.55Z" fill="url(#paint3_linear_2_488)"/>
<path d="M151.9 50.12C150.3 51.83 148.9 53.77 146.9 55.04C141.9 58.3 135.2 56.19 129.31 57.29C126.31 57.85 123.47 59.29 120.62 60.5C110.62 64.76 99.79 66.5 89.07 68.21C102.101 77.071 117.94 80.8197 133.56 78.74L131.71 85.15C137.669 88.3984 144.319 90.1726 151.104 90.3239C157.889 90.4753 164.612 88.9995 170.71 86.02C170.54 94.92 182.76 101.13 189.85 95.74C191.16 94.74 192.34 93.43 193.94 93.03C195.86 92.55 197.8 93.51 199.64 94.24C209.1 97.96 219.73 95.77 229.64 93.54C234.69 92.4 240 91.12 243.74 87.54C247.48 83.96 248.74 77.28 245 73.73C252.12 71.97 252.52 60.8 247 55.95C241.48 51.1 233.4 50.95 226.07 51.38C222.95 43.38 219.22 34.7 211.54 30.87C201.64 25.94 194.37 36.68 185.97 38.99C173.54 42.44 161.96 39.37 151.9 50.12Z" fill="url(#paint4_linear_2_488)"/>
<path d="M148.96 72.95C147.819 74.3877 146.509 75.6836 145.06 76.81C141.06 79.37 135.86 77.72 131.24 78.58C128.879 79.1715 126.589 80.0164 124.41 81.1C116.56 84.45 108.04 85.82 99.62 87.17C109.858 94.1275 122.3 97.0715 134.57 95.44L133.12 100.44C137.804 102.996 143.032 104.392 148.366 104.512C153.7 104.632 158.986 103.472 163.78 101.13C163.64 108.13 173.25 113 178.78 108.76C179.78 107.98 180.78 106.95 181.99 106.63C183.5 106.26 184.99 107.01 186.47 107.58C193.9 110.51 202.25 108.79 210.04 107.03C214.04 106.14 218.18 105.14 221.12 102.33C224.06 99.52 225.07 94.26 222.12 91.48C227.71 90.09 228.03 81.32 223.7 77.48C219.37 73.64 213.01 73.56 207.26 73.89C204.8 67.61 201.87 60.78 195.83 57.77C188.06 53.9 182.35 62.34 175.75 64.15C165.96 66.92 156.87 64.51 148.96 72.95Z" fill="url(#paint5_linear_2_488)"/>
<path d="M397.8 184.15C399.22 186.02 400.42 188.09 402.24 189.56C406.9 193.31 413.76 191.91 419.5 193.56C422.5 194.44 425.11 196.15 427.82 197.65C437.31 202.91 447.92 205.76 458.41 208.57C444.535 216.042 428.393 218.139 413.07 214.46L414.25 221.03C407.987 223.652 401.186 224.735 394.418 224.189C387.65 223.643 381.112 221.483 375.35 217.89C374.6 226.76 361.8 231.67 355.35 225.58C354.15 224.45 353.11 223.03 351.56 222.47C349.7 221.79 347.67 222.55 345.76 223.08C335.98 225.81 325.63 222.54 316 219.3C311.09 217.65 305.94 215.83 302.59 211.89C299.24 207.95 298.65 201.17 302.76 198.03C295.86 195.54 296.61 184.4 302.58 180.14C308.55 175.88 316.58 176.58 323.87 177.74C327.8 170.11 332.4 161.85 340.44 158.84C350.79 154.95 356.92 166.38 365.03 169.54C377.06 174.29 388.89 172.43 397.8 184.15Z" fill="url(#paint6_linear_2_488)"/>
<path d="M489.6 262.15C490.11 264.97 490.6 267.78 491.12 270.59C483.064 273.973 474.314 275.375 465.603 274.679C456.893 273.983 448.477 271.209 441.06 266.59C440.11 278.01 423.63 284.34 415.29 276.5C413.74 275.05 412.4 273.21 410.41 272.5C408.01 271.63 405.41 272.61 402.94 273.29C390.35 276.81 377.03 272.6 364.65 268.43C358.33 266.3 351.7 263.96 347.39 258.89C343.08 253.82 342.31 245.09 347.61 241.05C338.73 237.85 339.69 223.51 347.38 218.05C355.07 212.59 365.45 213.47 374.77 214.97C379.83 205.15 385.77 194.52 396.09 190.64C409.41 185.64 417.3 200.34 427.74 204.42C443.27 210.48 458.49 208.08 469.96 223.17C471.78 225.56 473.32 228.23 475.67 230.12C481.67 234.95 490.49 233.12 497.88 235.32C498.44 235.49 499 235.68 499.55 235.89C503.753 245.115 507.146 254.687 509.69 264.5C502.922 264.555 496.173 263.765 489.6 262.15Z" fill="url(#paint7_linear_2_488)"/>
<path d="M66.66 245.75C64.93 247.32 63.36 249.13 61.3 250.24C56.03 253.07 49.55 250.43 43.59 251.04C40.51 251.35 37.59 252.54 34.66 253.52C24.36 256.94 13.41 257.79 2.59003 258.62C14.8453 268.524 30.3234 273.559 46.06 272.76L43.7 279C49.3728 282.731 55.8567 285.048 62.6091 285.758C69.3614 286.468 76.1855 285.549 82.51 283.08C81.6 291.94 93.28 299.08 100.78 294.34C102.17 293.45 103.45 292.24 105.08 291.97C107.08 291.65 108.89 292.77 110.67 293.64C119.78 298.14 130.56 296.83 140.67 295.41C145.79 294.69 151.2 293.86 155.22 290.6C159.24 287.34 161.06 280.79 157.6 276.95C164.84 275.78 166.16 264.68 161.08 259.4C156 254.12 147.92 253.31 140.59 253.12C138.14 244.89 135.13 235.93 127.79 231.48C118.34 225.75 110.2 235.86 101.64 237.48C88.86 239.87 77.58 235.86 66.66 245.75Z" fill="url(#paint8_linear_2_488)"/>
<path d="M61.85 268.26C60.5954 269.6 59.1855 270.785 57.65 271.79C53.51 274.01 48.41 271.94 43.73 272.41C41.3339 272.809 38.9872 273.462 36.73 274.36C28.64 277.05 20.04 277.72 11.53 278.36C21.1612 286.142 33.3241 290.097 45.69 289.47L43.83 294.37C48.2826 297.305 53.3734 299.13 58.6763 299.694C63.9792 300.258 69.34 299.543 74.31 297.61C73.59 304.61 82.77 310.22 88.66 306.45C89.76 305.76 90.76 304.81 92.04 304.6C93.58 304.35 95.04 305.22 96.43 305.91C103.59 309.44 112.06 308.41 119.96 307.3C123.96 306.74 128.23 306.08 131.39 303.52C134.55 300.96 135.99 295.81 133.27 292.79C138.96 291.87 139.99 283.16 136 279C132.01 274.84 125.67 274.22 119.9 274.07C117.98 267.61 115.61 260.56 109.84 257.07C102.42 252.57 96.03 260.51 89.3 261.78C79.3 263.61 70.43 260.49 61.85 268.26Z" fill="url(#paint9_linear_2_488)"/>
<path d="M237 231.75C229.667 233.75 222.333 235.583 215 237.25C212.41 237.83 209.72 238.4 207.11 237.88C205.225 237.419 203.423 236.667 201.77 235.65C184.003 225.872 167.608 213.787 153.01 199.71C152.177 195.11 150.502 190.703 148.07 186.71C147.449 187.676 147.086 188.785 147.014 189.932C146.942 191.078 147.165 192.224 147.66 193.26C145.48 192.89 143.88 191.08 142.32 189.51C139.073 186.255 135.269 183.607 131.09 181.69C130.746 181.835 130.467 182.102 130.308 182.44C130.15 182.778 130.122 183.163 130.23 183.52C130.464 184.232 130.881 184.871 131.44 185.37L135.15 189.37L124.33 185.21C123.278 184.736 122.151 184.451 121 184.37C120.426 184.342 119.855 184.466 119.344 184.73C118.833 184.993 118.4 185.386 118.09 185.87L130.64 194.48L118.51 191.68C117.51 192.75 118.92 194.35 120.18 195.1L127.47 199.47C125.95 199.73 124.47 198.91 122.93 198.71C121.39 198.51 119.4 199.51 119.71 201.02C120.02 202.53 121.91 202.7 123.37 203.02C128.68 204.02 132.73 209.57 138.12 209.16C139.242 208.936 140.387 208.846 141.53 208.89C142.803 209.215 143.964 209.878 144.89 210.81C157.99 221.87 171.05 232.98 184.18 243.99C200.79 257.92 212.57 256.07 220.78 255.92C228.99 255.77 237.11 254.33 245.2 252.92C246 252.842 246.77 252.578 247.45 252.15C249.45 250.69 248.45 247.6 247.28 245.45C244.51 240.44 240.34 236.27 237 231.75Z" fill="#FAE9C7"/>
<path d="M314.57 250.26C315.069 253.52 314.82 256.851 313.84 260C313.84 262.62 311.75 266.37 310.77 268.78L310.71 268.92C310.45 269.57 310.18 270.21 309.9 270.85L309.08 272.63C309.051 272.699 309.017 272.765 308.98 272.83C308.84 273.13 308.68 273.44 308.53 273.73L308.05 274.67C307.72 275.3 307.38 275.92 307.05 276.53L306.5 277.45C306.44 277.568 306.366 277.679 306.28 277.78C306.288 277.803 306.288 277.827 306.28 277.85C305.738 278.717 305.147 279.551 304.51 280.35C302.598 282.675 300.53 284.866 298.32 286.91L297.02 288.17L296.19 288.99C295.59 289.58 295.02 290.17 294.44 290.77C294.12 291.1 293.81 291.45 293.5 291.77C292.29 293.13 290.98 294.54 289.23 295.02C289.042 295.057 288.864 295.136 288.71 295.25C285.263 291.61 281.75 288.04 278.17 284.54C276.86 283.25 275.52 281.96 274.17 280.69C272.43 279.03 270.67 277.38 268.81 275.87C262.28 270.58 254.59 266.98 246.98 263.44L238.41 259.61C236.67 258.8 234.88 257.61 232.99 257.2C232.24 257.018 231.461 256.991 230.7 257.12C225.7 257.99 221.42 259.41 216.33 259.76C215.584 259.878 214.821 259.806 214.11 259.55C213.37 259.23 212.05 255.3 211.59 254.64C208.548 250.216 206.748 245.056 206.38 239.7C206.294 239.093 206.363 238.474 206.58 237.9C207.052 237.163 207.755 236.603 208.58 236.31C217.36 231.99 226.09 227.18 232.95 220.2L233.71 219.43L235.07 218.1L235.94 217.27L238.37 214.98L239.37 214.08L239.91 213.58C241.715 211.889 243.781 210.501 246.03 209.47C246.66 209.18 247.31 208.92 247.96 208.69L248.96 208.37C249.63 208.18 250.29 208.01 250.96 207.88C252.323 207.608 253.71 207.471 255.1 207.47H255.84H256.4H256.83H257.33L257.98 207.55H258.13L258.81 207.66C259.31 207.75 259.81 207.86 260.29 207.99L260.72 208.1L261.02 208.19L261.31 208.28L262.16 208.57C266.55 210.12 270.34 212.97 274.06 215.78L296.83 232.98C301.31 236.38 305.8 239.777 310.3 243.17C311.24 243.88 316.49 247.05 317.2 247.99C318.19 249.43 314.31 248.61 314.57 250.26Z" fill="#212121"/>
<path d="M304.42 280.39C302.508 282.715 300.44 284.906 298.23 286.95L296.93 288.21L296.1 289.03C295.5 289.62 294.93 290.21 294.35 290.81C294.03 291.14 293.72 291.49 293.41 291.81C292.2 293.17 290.89 294.58 289.14 295.06C288.952 295.097 288.774 295.176 288.62 295.29C285.173 291.65 281.66 288.08 278.08 284.58C276.77 283.29 275.43 282 274.08 280.73C272.34 279.07 270.58 277.42 268.72 275.91C262.19 270.62 254.5 267.02 246.89 263.48L238.41 259.61C236.67 258.8 234.88 257.61 232.99 257.2C232.99 257.2 246.84 249.06 253.26 248.75C259.68 248.44 286.89 268.62 289.33 270.15C290.64 270.96 297.9 275.92 304.42 280.39Z" fill="url(#paint10_linear_2_488)"/>
</g>
<path d="M123 196C145.091 196 163 178.091 163 156C163 133.909 145.091 116 123 116C100.909 116 83 133.909 83 156C83 178.091 100.909 196 123 196Z" fill="#FEE8C7"/>
<path d="M107.193 133.367C107.812 133.367 108.313 132.865 108.313 132.247C108.313 131.628 107.812 131.127 107.193 131.127C106.575 131.127 106.073 131.628 106.073 132.247C106.073 132.865 106.575 133.367 107.193 133.367Z" fill="#DDBB8E"/>
<path d="M120.007 150.993C121.052 150.993 121.9 150.146 121.9 149.1C121.9 148.054 121.052 147.207 120.007 147.207C118.961 147.207 118.113 148.054 118.113 149.1C118.113 150.146 118.961 150.993 120.007 150.993Z" fill="#DDBB8E"/>
<path d="M153.54 143.12C154.667 143.12 155.58 142.207 155.58 141.08C155.58 139.953 154.667 139.04 153.54 139.04C152.413 139.04 151.5 139.953 151.5 141.08C151.5 142.207 152.413 143.12 153.54 143.12Z" fill="#DDBB8E"/>
<path d="M133.273 172.593C135.56 172.593 137.413 170.74 137.413 168.453C137.413 166.167 135.56 164.313 133.273 164.313C130.987 164.313 129.133 166.167 129.133 168.453C129.133 170.74 130.987 172.593 133.273 172.593Z" fill="#DDBB8E"/>
<path d="M137.42 168.507C137.433 170.8 135.587 172.66 133.293 172.673C131 172.687 129.14 170.84 129.127 168.547C129.127 168.18 129.173 167.813 129.267 167.46C129.873 169.667 132.153 170.973 134.36 170.367C135.773 169.98 136.88 168.873 137.267 167.46C137.36 167.8 137.413 168.153 137.42 168.507Z" fill="#C19968"/>
<path d="M132.573 135.94C134.473 135.94 136.013 134.4 136.013 132.5C136.013 130.6 134.473 129.06 132.573 129.06C130.674 129.06 129.133 130.6 129.133 132.5C129.133 134.4 130.674 135.94 132.573 135.94Z" fill="#DDBB8E"/>
<path d="M92.6933 145.833C93.264 145.833 93.7266 145.371 93.7266 144.8C93.7266 144.229 93.264 143.767 92.6933 143.767C92.1226 143.767 91.66 144.229 91.66 144.8C91.66 145.371 92.1226 145.833 92.6933 145.833Z" fill="white"/>
<path d="M99.3467 136.94C100.742 136.94 101.873 135.809 101.873 134.413C101.873 133.018 100.742 131.887 99.3467 131.887C97.9512 131.887 96.82 133.018 96.82 134.413C96.82 135.809 97.9512 136.94 99.3467 136.94Z" fill="white"/>
<path d="M105.6 124.613C106.266 124.613 106.807 124.073 106.807 123.407C106.807 122.74 106.266 122.2 105.6 122.2C104.934 122.2 104.393 122.74 104.393 123.407C104.393 124.073 104.934 124.613 105.6 124.613Z" fill="white"/>
<path d="M112.107 128.567C113.009 128.567 113.74 127.835 113.74 126.933C113.74 126.031 113.009 125.3 112.107 125.3C111.205 125.3 110.473 126.031 110.473 126.933C110.473 127.835 111.205 128.567 112.107 128.567Z" fill="white"/>
<path d="M98.3734 147.213C99.0398 147.213 99.58 146.673 99.58 146.007C99.58 145.34 99.0398 144.8 98.3734 144.8C97.7069 144.8 97.1667 145.34 97.1667 146.007C97.1667 146.673 97.7069 147.213 98.3734 147.213Z" fill="white"/>
<path d="M110.433 178.253C111.262 178.253 111.933 177.582 111.933 176.753C111.933 175.925 111.262 175.253 110.433 175.253C109.605 175.253 108.933 175.925 108.933 176.753C108.933 177.582 109.605 178.253 110.433 178.253Z" fill="#DDBB8E"/>
<path d="M100.72 156.413C101.593 156.413 102.3 155.706 102.3 154.833C102.3 153.961 101.593 153.253 100.72 153.253C99.8474 153.253 99.14 153.961 99.14 154.833C99.14 155.706 99.8474 156.413 100.72 156.413Z" fill="#DDBB8E"/>
</g>
<defs>
<linearGradient id="paint0_linear_2_488" x1="231.83" y1="427.14" x2="305.21" y2="-38.82" gradientUnits="userSpaceOnUse">
<stop offset="0.01"/>
<stop offset="0.13" stop-opacity="0.69"/>
<stop offset="1" stop-opacity="0"/>
</linearGradient>
<linearGradient id="paint1_linear_2_488" x1="235.9" y1="237.68" x2="206.85" y2="203.13" gradientUnits="userSpaceOnUse">
<stop offset="0.01"/>
<stop offset="0.13" stop-opacity="0.69"/>
<stop offset="1" stop-opacity="0"/>
</linearGradient>
<linearGradient id="paint2_linear_2_488" x1="320.97" y1="279.81" x2="384.26" y2="265.14" gradientUnits="userSpaceOnUse">
<stop offset="0.01"/>
<stop offset="0.13" stop-opacity="0.69"/>
<stop offset="1" stop-opacity="0"/>
</linearGradient>
<linearGradient id="paint3_linear_2_488" x1="289.73" y1="308.88" x2="360.05" y2="267" gradientUnits="userSpaceOnUse">
<stop offset="0.01"/>
<stop offset="0.13" stop-opacity="0.69"/>
<stop offset="1" stop-opacity="0"/>
</linearGradient>
<linearGradient id="paint4_linear_2_488" x1="157.46" y1="94.25" x2="200.24" y2="18.51" gradientUnits="userSpaceOnUse">
<stop offset="0.02" stop-color="white" stop-opacity="0"/>
<stop offset="0.58" stop-color="white" stop-opacity="0.39"/>
<stop offset="0.68" stop-color="white" stop-opacity="0.68"/>
<stop offset="1" stop-color="white"/>
</linearGradient>
<linearGradient id="paint5_linear_2_488" x1="153.33" y1="107.63" x2="186.95" y2="48.12" gradientUnits="userSpaceOnUse">
<stop offset="0.02" stop-color="white" stop-opacity="0"/>
<stop offset="0.58" stop-color="white" stop-opacity="0.39"/>
<stop offset="0.68" stop-color="white" stop-opacity="0.68"/>
<stop offset="1" stop-color="white"/>
</linearGradient>
<linearGradient id="paint6_linear_2_488" x1="390.147" y1="227.037" x2="355.369" y2="147.776" gradientUnits="userSpaceOnUse">
<stop offset="0.02" stop-color="white" stop-opacity="0"/>
<stop offset="0.58" stop-color="white" stop-opacity="0.39"/>
<stop offset="0.68" stop-color="white" stop-opacity="0.68"/>
<stop offset="1" stop-color="white"/>
</linearGradient>
<linearGradient id="paint7_linear_2_488" x1="428.43" y1="289.14" x2="420.87" y2="183.2" gradientUnits="userSpaceOnUse">
<stop offset="0.02" stop-color="white" stop-opacity="0"/>
<stop offset="0.58" stop-color="white" stop-opacity="0.39"/>
<stop offset="0.68" stop-color="white" stop-opacity="0.68"/>
<stop offset="1" stop-color="white"/>
</linearGradient>
<linearGradient id="paint8_linear_2_488" x1="68.5592" y1="290.21" x2="117.426" y2="218.247" gradientUnits="userSpaceOnUse">
<stop offset="0.02" stop-color="white" stop-opacity="0"/>
<stop offset="0.58" stop-color="white" stop-opacity="0.39"/>
<stop offset="0.68" stop-color="white" stop-opacity="0.68"/>
<stop offset="1" stop-color="white"/>
</linearGradient>
<linearGradient id="paint9_linear_2_488" x1="63.343" y1="303.195" x2="101.746" y2="246.653" gradientUnits="userSpaceOnUse">
<stop offset="0.02" stop-color="white" stop-opacity="0"/>
<stop offset="0.58" stop-color="white" stop-opacity="0.39"/>
<stop offset="0.68" stop-color="white" stop-opacity="0.68"/>
<stop offset="1" stop-color="white"/>
</linearGradient>
<linearGradient id="paint10_linear_2_488" x1="243.13" y1="207.49" x2="277.06" y2="288.82" gradientUnits="userSpaceOnUse">
<stop offset="0.01"/>
<stop offset="0.13" stop-opacity="0.69"/>
<stop offset="1" stop-opacity="0"/>
</linearGradient>
<clipPath id="clip0_2_488">
<rect width="515" height="401" fill="white"/>
</clipPath>
</defs>
</svg>
