<svg width="1707" height="1131" viewBox="0 0 1707 1131" fill="none" xmlns="http://www.w3.org/2000/svg">
<mask id="mask0_13_71" style="mask-type:luminance" maskUnits="userSpaceOnUse" x="1230" y="666" width="40" height="14">
<path d="M1270 666H1230V680H1270V666Z" fill="white"/>
</mask>
<g mask="url(#mask0_13_71)">
<path d="M1261.85 666.4C1260.99 666.8 1255.96 670.133 1253.5 672L1251.81 673.267L1247.27 671.2C1241.17 668.4 1236.76 668.333 1233.26 670.933C1231.1 672.533 1229.02 674.667 1230.59 673.733C1235.99 670.4 1239.78 669.4 1242.3 670.6C1243.19 671 1245.64 673.2 1247.75 675.467C1250.5 678.467 1251.99 679.667 1253.14 679.867C1254.95 680.2 1255.16 679.467 1254.27 676C1253.14 671.8 1254 671.333 1263.33 670.733L1270 670.267L1268.31 668.467C1266.62 666.6 1263.6 665.667 1261.85 666.4Z" fill="white"/>
</g>
<mask id="mask1_13_71" style="mask-type:luminance" maskUnits="userSpaceOnUse" x="800" y="267" width="180" height="28">
<path d="M980 267H800V295H980V267Z" fill="white"/>
</mask>
<g mask="url(#mask1_13_71)">
<path d="M943.333 267.8C939.467 268.6 916.8 275.267 905.733 279L898.133 281.533L877.733 277.4C850.267 271.8 830.4 271.667 814.667 276.867C804.933 280.067 795.6 284.333 802.667 282.467C826.933 275.8 844 273.8 855.333 276.2C859.333 277 870.4 281.4 879.867 285.933C892.267 291.933 898.933 294.333 904.133 294.733C912.267 295.4 913.2 293.933 909.2 287C904.133 278.6 908 277.667 950 276.467L980 275.533L972.4 271.933C964.8 268.2 951.2 266.333 943.333 267.8Z" fill="white"/>
</g>
<path d="M782.463 1039.42C780.614 1040.08 769.772 1045.64 764.479 1048.76L760.844 1050.87L751.087 1047.42C737.951 1042.75 728.449 1042.64 720.924 1046.98C716.268 1049.65 711.804 1053.21 715.184 1051.65C726.791 1046.09 734.953 1044.42 740.374 1046.42C742.287 1047.09 747.58 1050.76 752.108 1054.54C758.039 1059.54 761.227 1061.55 763.714 1061.88C767.604 1062.43 768.051 1061.21 766.137 1055.43C763.714 1048.42 765.564 1047.65 785.651 1046.65L800 1045.87L796.365 1042.86C792.73 1039.75 786.225 1038.19 782.463 1039.42Z" fill="white"/>
</svg>
