<svg width="515" height="401" viewBox="0 0 515 401" fill="none" xmlns="http://www.w3.org/2000/svg">
<path d="M291.18 20.81L289.19 26.47L279.71 28.91L286.59 32.43L282.92 43.59L291.94 36.25L300.19 42.22L296.37 32.13L302.33 25.7L293.47 26.16L291.18 20.81Z" fill="#FFE455"/>
<path d="M352.78 67.68L351.88 70.24L347.58 71.34L350.7 72.94L349.04 77.99L353.12 74.67L356.86 77.36L355.13 72.8L357.83 69.89L353.81 70.1L352.78 67.68Z" fill="#FFE455"/>
<path d="M337.27 118.41L335.17 119.43L331.88 117.52L332.82 120.38L328.76 122.47L333.26 122.9L333.93 126.81L335.62 122.96L339.03 122.81L336.44 120.52L337.27 118.41Z" fill="#FFE455"/>
<path d="M60.99 145.94L61.53 149.9L56.66 154.24L61.81 154.23L63.05 161.97L66.15 154.86L72.87 155.88L67.52 151.06L69.1 145.43L63.98 148.41L60.99 145.94Z" fill="#FFE455"/>
<path d="M29.15 203.9L29.47 206.21L26.62 208.75L29.63 208.74L30.35 213.26L32.16 209.11L36.08 209.7L32.96 206.89L33.88 203.61L30.89 205.34L29.15 203.9Z" fill="#FFE455"/>
<path d="M54.43 234.64L54.68 236.43L52.47 238.4L54.8 238.39L55.36 241.89L56.77 238.68L59.81 239.13L57.39 236.96L58.1 234.41L55.78 235.76L54.43 234.64Z" fill="#FFE455"/>
<path d="M80.95 175L81.19 176.79L78.99 178.76L81.32 178.75L81.88 182.25L83.28 179.04L86.32 179.5L83.9 177.31L84.62 174.77L82.3 176.12L80.95 175Z" fill="#FFE455"/>
<path d="M479.33 302.09L478.13 303.61L474.99 303.36L476.71 305.15L474.42 308.16L477.94 306.88L479.83 309.56L479.73 306.08L482.22 304.76L479.47 303.96L479.33 302.09Z" fill="#FFE455"/>
<path d="M448.46 310.32L447.76 311.2L445.93 311.06L446.93 312.1L445.6 313.86L447.65 313.11L448.75 314.68L448.69 312.65L450.14 311.88L448.54 311.41L448.46 310.32Z" fill="#FFE455"/>
<path d="M504.16 315.88L503.62 316.57L502.2 316.45L502.98 317.27L501.94 318.63L503.53 318.05L504.39 319.26L504.34 317.69L505.47 317.09L504.22 316.73L504.16 315.88Z" fill="#FFE455"/>
<path d="M446.17 329.41L445.62 330.1L444.2 329.98L444.98 330.79L443.94 332.16L445.54 331.57L446.39 332.79L446.35 331.22L447.47 330.62L446.23 330.26L446.17 329.41Z" fill="#FFE455"/>
<path d="M475.85 318.76L475.3 319.45L473.88 319.33L474.66 320.15L473.62 321.51L475.22 320.93L476.07 322.14L476.02 320.57L477.15 319.97L475.91 319.61L475.85 318.76Z" fill="#FFE455"/>
<path d="M456.34 246.87L455.14 248.39L452 248.14L453.72 249.93L451.43 252.94L454.95 251.66L456.84 254.34L456.73 250.87L459.23 249.54L456.48 248.75L456.34 246.87Z" fill="#FFE455"/>
<path d="M481.17 260.67L480.63 261.35L479.21 261.24L479.99 262.05L478.95 263.41L480.54 262.83L481.4 264.05L481.35 262.47L482.48 261.87L481.23 261.51L481.17 260.67Z" fill="#FFE455"/>
<path d="M452.86 263.54L452.31 264.23L450.89 264.12L451.67 264.93L450.63 266.29L452.23 265.71L453.08 266.92L453.03 265.35L454.16 264.75L452.92 264.39L452.86 263.54Z" fill="#FFE455"/>
</svg>
