<svg width="515" height="401" viewBox="0 0 515 401" fill="none" xmlns="http://www.w3.org/2000/svg">
<path d="M245.54 18.67L243.56 24.33L234.08 26.77L240.96 30.29L237.29 41.45L246.31 34.11L254.56 40.08L250.74 29.98L256.7 23.56L247.84 24.02L245.54 18.67Z" fill="#FFE455"/>
<path d="M163.08 72.18L161.92 75.48L156.38 76.91L160.4 78.97L158.26 85.48L163.53 81.2L168.35 84.68L166.11 78.79L169.59 75.04L164.42 75.31L163.08 72.18Z" fill="#FFE455"/>
<path d="M422.17 153.93L418.58 155.69L412.93 152.42L414.56 157.31L407.59 160.89L415.31 161.63L416.44 168.32L419.35 161.74L425.19 161.48L420.76 157.55L422.17 153.93Z" fill="#FFE455"/>
<path d="M29.15 203.9L29.47 206.21L26.62 208.75L29.63 208.74L30.35 213.26L32.16 209.11L36.08 209.7L32.96 206.89L33.88 203.61L30.89 205.34L29.15 203.9Z" fill="#FFE455"/>
<path d="M54.43 234.64L54.68 236.43L52.47 238.4L54.8 238.39L55.36 241.89L56.77 238.68L59.81 239.13L57.39 236.96L58.1 234.41L55.78 235.76L54.43 234.64Z" fill="#FFE455"/>
<path d="M446.17 329.41L445.62 330.1L444.2 329.98L444.98 330.79L443.94 332.16L445.54 331.57L446.39 332.79L446.35 331.22L447.47 330.62L446.23 330.26L446.17 329.41Z" fill="#FFE455"/>
<path d="M456.34 246.87L455.14 248.39L452 248.14L453.72 249.93L451.43 252.94L454.95 251.66L456.84 254.34L456.73 250.87L459.23 249.54L456.48 248.75L456.34 246.87Z" fill="#FFE455"/>
<path d="M257.14 107.36L255.71 108.26L253.19 107.13L254.09 109.11L251.32 110.92L254.59 110.89L255.36 113.65L256.3 110.76L258.74 110.4L256.7 108.94L257.14 107.36Z" fill="#FFE455"/>
<path d="M229.31 105.11L228.47 105.63L227 104.97L227.53 106.13L225.91 107.18L227.82 107.17L228.27 108.78L228.82 107.09L230.24 106.88L229.06 106.03L229.31 105.11Z" fill="#FFE455"/>
<path d="M221.84 120.15L221.19 120.56L220.05 120.05L220.45 120.95L219.2 121.77L220.68 121.75L221.03 123L221.45 121.69L222.56 121.53L221.64 120.87L221.84 120.15Z" fill="#FFE455"/>
<path d="M249.39 120.07L248.74 120.47L247.61 119.96L248.01 120.86L246.76 121.68L248.24 121.67L248.59 122.92L249.01 121.61L250.11 121.44L249.19 120.78L249.39 120.07Z" fill="#FFE455"/>
</svg>
