<svg width="515" height="401" viewBox="0 0 515 401" fill="none" xmlns="http://www.w3.org/2000/svg">
<path d="M296.08 289.04L295.69 289.12C296.04 288.749 296.453 288.445 296.91 288.22C297.136 288.115 297.381 288.057 297.63 288.049C297.879 288.04 298.127 288.081 298.36 288.17C298.86 288.36 297.63 288.71 296.08 289.04Z" fill="#68E1FD"/>
<path d="M352.78 67.68L351.88 70.24L347.58 71.34L350.7 72.94L349.04 77.99L353.12 74.67L356.86 77.36L355.13 72.8L357.83 69.89L353.81 70.1L352.78 67.68Z" fill="#FFE455"/>
<path d="M422.17 153.93L418.58 155.69L412.93 152.42L414.56 157.31L407.59 160.89L415.31 161.63L416.44 168.32L419.35 161.74L425.19 161.48L420.76 157.55L422.17 153.93Z" fill="#FFE455"/>
<path d="M429.51 205.02L427.89 205.82L425.33 204.34L426.07 206.55L422.92 208.17L426.41 208.51L426.92 211.54L428.24 208.56L430.88 208.44L428.88 206.66L429.51 205.02Z" fill="#FFE455"/>
<path d="M315.97 152.02L314.34 152.82L311.79 151.34L312.52 153.55L309.37 155.17L312.86 155.51L313.38 158.54L314.69 155.56L317.33 155.44L315.33 153.66L315.97 152.02Z" fill="#FFE455"/>
<path d="M397.9 174.02L396.27 174.82L393.71 173.34L394.45 175.55L391.3 177.17L394.79 177.51L395.3 180.54L396.62 177.56L399.26 177.44L397.26 175.66L397.9 174.02Z" fill="#FFE455"/>
<path d="M83.79 273.82L84.15 276.42L80.96 279.27L84.33 279.26L85.14 284.33L87.18 279.67L91.58 280.34L88.08 277.18L89.11 273.49L85.75 275.45L83.79 273.82Z" fill="#FFE455"/>
<path d="M62.92 311.82L63.13 313.33L61.27 315L63.24 314.99L63.71 317.95L64.9 315.23L67.47 315.62L65.42 313.78L66.03 311.62L64.07 312.76L62.92 311.82Z" fill="#FFE455"/>
<path d="M120.6 262.4L120.76 263.57L119.31 264.86H120.84L121.21 267.15L122.13 265.04L124.12 265.35L122.54 263.92L123 262.25L121.48 263.13L120.6 262.4Z" fill="#FFE455"/>
<path d="M79.49 331.96L79.66 333.14L78.21 334.43L79.74 334.42L80.11 336.72L81.03 334.61L83.02 334.91L81.43 333.48L81.9 331.81L80.38 332.7L79.49 331.96Z" fill="#FFE455"/>
<path d="M96.88 292.87L97.04 294.05L95.59 295.34L97.12 295.33L97.49 297.63L98.41 295.52L100.4 295.82L98.81 294.39L99.28 292.72L97.76 293.61L96.88 292.87Z" fill="#FFE455"/>
<path d="M249.32 303.62L248.12 305.13L244.98 304.88L246.7 306.67L244.41 309.69L247.93 308.4L249.81 311.08L249.71 307.61L252.2 306.28L249.46 305.49L249.32 303.62Z" fill="#FFE455"/>
<path d="M218.45 311.85L217.75 312.73L215.91 312.58L216.92 313.63L215.58 315.39L217.64 314.64L218.74 316.2L218.68 314.18L220.13 313.4L218.53 312.94L218.45 311.85Z" fill="#FFE455"/>
<path d="M274.15 317.41L273.61 318.09L272.18 317.98L272.96 318.79L271.93 320.16L273.52 319.57L274.38 320.79L274.33 319.22L275.46 318.62L274.21 318.26L274.15 317.41Z" fill="#FFE455"/>
<path d="M216.15 330.94L215.61 331.62L214.19 331.51L214.97 332.32L213.93 333.68L215.52 333.1L216.38 334.31L216.33 332.74L217.46 332.14L216.22 331.78L216.15 330.94Z" fill="#FFE455"/>
<path d="M245.83 320.29L245.29 320.97L243.87 320.86L244.65 321.67L243.61 323.04L245.2 322.45L246.06 323.67L246.01 322.1L247.14 321.49L245.9 321.13L245.83 320.29Z" fill="#FFE455"/>
<path d="M167.03 292.57L165.99 293.89L163.24 293.67L164.75 295.24L162.74 297.87L165.82 296.75L167.47 299.1L167.38 296.06L169.56 294.9L167.15 294.2L167.03 292.57Z" fill="#FFE455"/>
<path d="M140.06 299.76L139.44 300.53L137.84 300.4L138.72 301.32L137.55 302.86L139.34 302.2L140.31 303.57L140.25 301.8L141.53 301.12L140.12 300.71L140.06 299.76Z" fill="#FFE455"/>
<path d="M188.74 304.62L188.26 305.22L187.02 305.12L187.7 305.83L186.79 307.02L188.19 306.51L188.93 307.58L188.89 306.2L189.88 305.68L188.79 305.36L188.74 304.62Z" fill="#FFE455"/>
<path d="M138.05 316.44L137.57 317.04L136.33 316.94L137.01 317.65L136.11 318.84L137.5 318.33L138.25 319.4L138.21 318.02L139.19 317.5L138.1 317.18L138.05 316.44Z" fill="#FFE455"/>
<path d="M163.99 307.14L163.51 307.74L162.27 307.64L162.95 308.35L162.05 309.54L163.44 309.03L164.18 310.09L164.14 308.72L165.13 308.19L164.04 307.88L163.99 307.14Z" fill="#FFE455"/>
<path d="M371.84 206.12L370.17 206.32L368.37 204.24L368.34 206.41L365.06 206.88L368.04 208.24L367.56 211.06L369.63 208.84L372 209.55L370.78 207.37L371.84 206.12Z" fill="#FFE455"/>
<path d="M347.6 192.27L346.62 192.39L345.57 191.17L345.55 192.44L343.64 192.71L345.38 193.51L345.1 195.16L346.31 193.86L347.69 194.27L346.97 193L347.6 192.27Z" fill="#FFE455"/>
<path d="M378.81 229.95L378.05 230.04L377.23 229.09L377.22 230.08L375.74 230.29L377.09 230.91L376.87 232.19L377.81 231.18L378.88 231.5L378.32 230.51L378.81 229.95Z" fill="#FFE455"/>
<path d="M334.44 202.73L333.69 202.82L332.87 201.88L332.86 202.86L331.38 203.07L332.72 203.69L332.51 204.97L333.44 203.96L334.51 204.28L333.96 203.29L334.44 202.73Z" fill="#FFE455"/>
<path d="M359.43 214.34L358.68 214.43L357.86 213.49L357.85 214.47L356.37 214.68L357.71 215.3L357.5 216.58L358.44 215.57L359.5 215.89L358.95 214.91L359.43 214.34Z" fill="#FFE455"/>
</svg>
